<?xml version="1.0"?>
<svg xmlns="http://www.w3.org/2000/svg" viewBox="0 0 460 250" width="460" height="250">
<g fill="none" stroke="#1890a8" stroke-width="6" stroke-linecap="round" stroke-linejoin="round">
    <path d="M 40,175 Q 62,108 84,52 M 84,52 Q 106,108 126,175 M 48,135 Q 84,128 124,124"></path>
    <path d="M 198,60 C 166,62 156,105 166,144 C 176,174 214,174 230,138 C 242,102 225,58 198,60 Z"></path>
    <path d="M 188,20 Q 200,38 212,52" stroke-width="5.5"></path>
    <path d="M 320,52 L 320,180"></path>
    <path d="M 320,52 C 285,48 268,78 285,108 C 300,114 315,110 320,108"></path>
    <path d="M 285,108 Q 248,170 208,235"></path>
    <path d="M 348,60 L 428,54 M 388,56 L 388,165 M 348,172 L 438,164"></path>
  </g>
</svg>